<mxfile host="app.diagrams.net" modified="2023-11-08T07:36:50.985Z" agent="Mozilla/5.0 (Windows NT 10.0; Win64; x64) AppleWebKit/537.36 (KHTML, like Gecko) Chrome/119.0.0.0 Safari/537.36" etag="_Sz6UUnK6LaEwKcnCj__" version="22.0.8" type="device">
  <diagram name="PÃ¡gina-1" id="wY6uZcT8hMfS2q6cgCWG">
    <mxGraphModel dx="1195" dy="668" grid="1" gridSize="10" guides="1" tooltips="1" connect="1" arrows="1" fold="1" page="1" pageScale="1" pageWidth="827" pageHeight="1169" math="0" shadow="0">
      <root>
        <mxCell id="0" />
        <mxCell id="1" parent="0" />
        <mxCell id="btgjlnelvWsudcuo9mZK-2" style="edgeStyle=orthogonalEdgeStyle;rounded=0;orthogonalLoop=1;jettySize=auto;html=1;entryX=0.5;entryY=0;entryDx=0;entryDy=0;" edge="1" parent="1" source="btgjlnelvWsudcuo9mZK-3">
          <mxGeometry relative="1" as="geometry">
            <mxPoint x="291" y="180" as="targetPoint" />
          </mxGeometry>
        </mxCell>
        <mxCell id="btgjlnelvWsudcuo9mZK-3" value="void matriz()" style="ellipse;whiteSpace=wrap;html=1;" vertex="1" parent="1">
          <mxGeometry x="237.75" y="80" width="107.5" height="70" as="geometry" />
        </mxCell>
        <mxCell id="btgjlnelvWsudcuo9mZK-54" value="" style="edgeStyle=orthogonalEdgeStyle;rounded=0;orthogonalLoop=1;jettySize=auto;html=1;" edge="1" parent="1" source="btgjlnelvWsudcuo9mZK-7" target="btgjlnelvWsudcuo9mZK-53">
          <mxGeometry relative="1" as="geometry" />
        </mxCell>
        <mxCell id="btgjlnelvWsudcuo9mZK-7" value="&lt;div&gt;int matriz[3][3] = {{1, 2, 3},&lt;/div&gt;&lt;div&gt;&amp;nbsp; &amp;nbsp; &amp;nbsp; &amp;nbsp; &amp;nbsp; &amp;nbsp; &amp;nbsp; &amp;nbsp; &amp;nbsp; &amp;nbsp; &amp;nbsp; &amp;nbsp; {4, 5, 6},&lt;/div&gt;&lt;div&gt;&amp;nbsp; &amp;nbsp; &amp;nbsp; &amp;nbsp; &amp;nbsp; &amp;nbsp; &amp;nbsp; &amp;nbsp; &amp;nbsp; &amp;nbsp; &amp;nbsp; &amp;nbsp; {7, 8, 9}};&lt;/div&gt;" style="rounded=0;whiteSpace=wrap;html=1;" vertex="1" parent="1">
          <mxGeometry x="213.5" y="180" width="156" height="60" as="geometry" />
        </mxCell>
        <mxCell id="btgjlnelvWsudcuo9mZK-56" value="" style="edgeStyle=orthogonalEdgeStyle;rounded=0;orthogonalLoop=1;jettySize=auto;html=1;" edge="1" parent="1" source="btgjlnelvWsudcuo9mZK-53" target="btgjlnelvWsudcuo9mZK-55">
          <mxGeometry relative="1" as="geometry" />
        </mxCell>
        <mxCell id="btgjlnelvWsudcuo9mZK-53" value="int max = 0, fila = 0, col = 0, suma = 0;" style="rounded=0;whiteSpace=wrap;html=1;" vertex="1" parent="1">
          <mxGeometry x="177.25" y="270" width="228.5" height="40" as="geometry" />
        </mxCell>
        <mxCell id="btgjlnelvWsudcuo9mZK-58" value="" style="edgeStyle=orthogonalEdgeStyle;rounded=0;orthogonalLoop=1;jettySize=auto;html=1;" edge="1" parent="1" source="btgjlnelvWsudcuo9mZK-55" target="btgjlnelvWsudcuo9mZK-57">
          <mxGeometry relative="1" as="geometry" />
        </mxCell>
        <mxCell id="btgjlnelvWsudcuo9mZK-55" value="int *ptr = &amp;amp;matriz[0][0];" style="rounded=0;whiteSpace=wrap;html=1;" vertex="1" parent="1">
          <mxGeometry x="206.5" y="340" width="170" height="40" as="geometry" />
        </mxCell>
        <mxCell id="btgjlnelvWsudcuo9mZK-60" value="" style="edgeStyle=orthogonalEdgeStyle;rounded=0;orthogonalLoop=1;jettySize=auto;html=1;" edge="1" parent="1" source="btgjlnelvWsudcuo9mZK-57" target="btgjlnelvWsudcuo9mZK-59">
          <mxGeometry relative="1" as="geometry" />
        </mxCell>
        <mxCell id="btgjlnelvWsudcuo9mZK-75" style="edgeStyle=orthogonalEdgeStyle;rounded=0;orthogonalLoop=1;jettySize=auto;html=1;entryX=0.5;entryY=0;entryDx=0;entryDy=0;" edge="1" parent="1" source="btgjlnelvWsudcuo9mZK-57" target="btgjlnelvWsudcuo9mZK-69">
          <mxGeometry relative="1" as="geometry">
            <Array as="points">
              <mxPoint x="450" y="450" />
              <mxPoint x="450" y="830" />
              <mxPoint x="291" y="830" />
            </Array>
          </mxGeometry>
        </mxCell>
        <mxCell id="btgjlnelvWsudcuo9mZK-57" value="Desde i = 0&lt;br&gt;Mientras i &amp;lt; 3 * 3&lt;br&gt;Incremento i++" style="shape=hexagon;perimeter=hexagonPerimeter2;whiteSpace=wrap;html=1;fixedSize=1;" vertex="1" parent="1">
          <mxGeometry x="227.25" y="410" width="128.5" height="80" as="geometry" />
        </mxCell>
        <mxCell id="btgjlnelvWsudcuo9mZK-62" value="" style="edgeStyle=orthogonalEdgeStyle;rounded=0;orthogonalLoop=1;jettySize=auto;html=1;" edge="1" parent="1" source="btgjlnelvWsudcuo9mZK-59" target="btgjlnelvWsudcuo9mZK-61">
          <mxGeometry relative="1" as="geometry" />
        </mxCell>
        <mxCell id="btgjlnelvWsudcuo9mZK-59" value="suma += *ptr;" style="rounded=0;whiteSpace=wrap;html=1;" vertex="1" parent="1">
          <mxGeometry x="231.5" y="520" width="120" height="35" as="geometry" />
        </mxCell>
        <mxCell id="btgjlnelvWsudcuo9mZK-64" style="edgeStyle=orthogonalEdgeStyle;rounded=0;orthogonalLoop=1;jettySize=auto;html=1;entryX=0.5;entryY=0;entryDx=0;entryDy=0;" edge="1" parent="1" source="btgjlnelvWsudcuo9mZK-61" target="btgjlnelvWsudcuo9mZK-63">
          <mxGeometry relative="1" as="geometry">
            <Array as="points">
              <mxPoint x="360" y="620" />
            </Array>
          </mxGeometry>
        </mxCell>
        <mxCell id="btgjlnelvWsudcuo9mZK-66" style="edgeStyle=orthogonalEdgeStyle;rounded=0;orthogonalLoop=1;jettySize=auto;html=1;entryX=0.5;entryY=0;entryDx=0;entryDy=0;" edge="1" parent="1" source="btgjlnelvWsudcuo9mZK-61" target="btgjlnelvWsudcuo9mZK-65">
          <mxGeometry relative="1" as="geometry">
            <Array as="points">
              <mxPoint x="220" y="620" />
              <mxPoint x="220" y="750" />
              <mxPoint x="292" y="750" />
            </Array>
          </mxGeometry>
        </mxCell>
        <mxCell id="btgjlnelvWsudcuo9mZK-61" value="*ptr &amp;gt; max" style="rhombus;whiteSpace=wrap;html=1;" vertex="1" parent="1">
          <mxGeometry x="247.25" y="580" width="88.5" height="80" as="geometry" />
        </mxCell>
        <mxCell id="btgjlnelvWsudcuo9mZK-67" style="edgeStyle=orthogonalEdgeStyle;rounded=0;orthogonalLoop=1;jettySize=auto;html=1;entryX=0.5;entryY=0;entryDx=0;entryDy=0;" edge="1" parent="1" source="btgjlnelvWsudcuo9mZK-63" target="btgjlnelvWsudcuo9mZK-65">
          <mxGeometry relative="1" as="geometry" />
        </mxCell>
        <mxCell id="btgjlnelvWsudcuo9mZK-63" value="max = *ptr;&lt;br&gt;fila = i / 3;&lt;br&gt;col = i % 3;" style="rounded=0;whiteSpace=wrap;html=1;" vertex="1" parent="1">
          <mxGeometry x="300" y="670" width="120" height="60" as="geometry" />
        </mxCell>
        <mxCell id="btgjlnelvWsudcuo9mZK-68" style="edgeStyle=orthogonalEdgeStyle;rounded=0;orthogonalLoop=1;jettySize=auto;html=1;entryX=0;entryY=0.5;entryDx=0;entryDy=0;" edge="1" parent="1" source="btgjlnelvWsudcuo9mZK-65" target="btgjlnelvWsudcuo9mZK-57">
          <mxGeometry relative="1" as="geometry">
            <Array as="points">
              <mxPoint x="292" y="810" />
              <mxPoint x="190" y="810" />
              <mxPoint x="190" y="450" />
            </Array>
          </mxGeometry>
        </mxCell>
        <mxCell id="btgjlnelvWsudcuo9mZK-65" value="ptr++" style="rounded=0;whiteSpace=wrap;html=1;" vertex="1" parent="1">
          <mxGeometry x="259.75" y="770" width="63.5" height="30" as="geometry" />
        </mxCell>
        <mxCell id="btgjlnelvWsudcuo9mZK-73" style="edgeStyle=orthogonalEdgeStyle;rounded=0;orthogonalLoop=1;jettySize=auto;html=1;entryX=0.5;entryY=0;entryDx=0;entryDy=0;" edge="1" parent="1" source="btgjlnelvWsudcuo9mZK-69" target="btgjlnelvWsudcuo9mZK-70">
          <mxGeometry relative="1" as="geometry" />
        </mxCell>
        <mxCell id="btgjlnelvWsudcuo9mZK-69" value="&quot;Suma de la matriz: %d\n&quot;, suma" style="shape=document;whiteSpace=wrap;html=1;boundedLbl=1;" vertex="1" parent="1">
          <mxGeometry x="199.12" y="850" width="184.75" height="60" as="geometry" />
        </mxCell>
        <mxCell id="btgjlnelvWsudcuo9mZK-74" style="edgeStyle=orthogonalEdgeStyle;rounded=0;orthogonalLoop=1;jettySize=auto;html=1;entryX=0.5;entryY=0;entryDx=0;entryDy=0;" edge="1" parent="1" source="btgjlnelvWsudcuo9mZK-70" target="btgjlnelvWsudcuo9mZK-71">
          <mxGeometry relative="1" as="geometry" />
        </mxCell>
        <mxCell id="btgjlnelvWsudcuo9mZK-70" value="&quot;Elemento mas grande: %d\n&quot;, max" style="shape=document;whiteSpace=wrap;html=1;boundedLbl=1;" vertex="1" parent="1">
          <mxGeometry x="189.12" y="930" width="204.75" height="60" as="geometry" />
        </mxCell>
        <mxCell id="btgjlnelvWsudcuo9mZK-71" value="&quot;Fila %d\nColumna %d\n&quot;, fila, col" style="shape=document;whiteSpace=wrap;html=1;boundedLbl=1;" vertex="1" parent="1">
          <mxGeometry x="189.12" y="1010" width="204.75" height="60" as="geometry" />
        </mxCell>
      </root>
    </mxGraphModel>
  </diagram>
</mxfile>
